<svg width="35" height="32" viewBox="0 0 35 32" fill="none" xmlns="http://www.w3.org/2000/svg">
<g clip-path="url(#clip0_1_29)">
<path d="M15.9563 28.1755C15.9563 30.1552 14.3357 31.7605 12.3365 31.7605C10.3379 31.7605 8.71716 30.1553 8.71716 28.1755C8.71716 26.1955 10.3378 24.5903 12.3365 24.5903C14.3356 24.5903 15.9563 26.1954 15.9563 28.1755Z" fill="#111010"/>
<path d="M32.3813 28.1755C32.3813 30.1552 30.7607 31.7605 28.7616 31.7605C26.7625 31.7605 25.1422 30.1553 25.1422 28.1755C25.1422 26.1955 26.7625 24.5903 28.7616 24.5903C30.7606 24.5903 32.3813 26.1954 32.3813 28.1755Z" fill="#111010"/>
<path d="M34.8014 3.29373C34.6318 3.08625 34.3767 2.96561 34.1073 2.96561H14.591C14.0982 2.96561 13.6983 3.36162 13.6983 3.84988C13.6983 4.33809 14.0981 4.73413 14.591 4.73413H33.003L31.0798 13.6374C30.7071 14.7083 29.6951 15.4244 28.5483 15.4244L8.66802 15.4247L6.53119 3.04524C6.23723 1.34123 4.75693 0.104248 3.01164 0.104248H1.23542C0.742501 0.104248 0.342651 0.500249 0.342651 0.988508C0.342651 1.47677 0.742461 1.87277 1.23542 1.87277H3.01164C3.88424 1.87277 4.62462 2.49109 4.77154 3.34314L7.47937 19.0307C7.84699 21.1608 9.69749 22.7069 11.8792 22.7069H31.2951C31.788 22.7069 32.1879 22.3109 32.1879 21.8227C32.1879 21.3344 31.7881 20.9384 31.2951 20.9384H11.8792C10.5701 20.9384 9.45985 20.0108 9.23926 18.7326L8.97337 17.1924H28.5484C30.4843 17.1924 32.1894 15.9678 32.791 14.1454C32.8009 14.116 32.8089 14.086 32.8155 14.0557L34.9804 4.0344C35.0368 3.77355 34.9712 3.50133 34.8016 3.29355L34.8014 3.29373Z" fill="#111010"/>
</g>
<defs>
<clipPath id="clip0_1_29">
<rect width="35" height="32" fill="white"/>
</clipPath>
</defs>
</svg>
